<svg xmlns="http://www.w3.org/2000/svg" enable-background="new 0 0 64 64" viewBox="0 0 64 64" id="organization"><path d="M46.54,36.26c-0.5-3.86-3.81-6.78-7.71-6.78c-0.09,0-0.17,0.02-0.26,0.05c-4.4,1.66-8.82,1.66-13.13-0.01
		c-0.09-0.03-0.18-0.05-0.27-0.05c-3.89,0-7.2,2.91-7.71,6.82l-0.28,4.45c-0.04,0.3,0.06,0.6,0.26,0.83
		c0.19,0.23,0.48,0.36,0.78,0.36l27.55,0.01c0.01,0,0.01,0,0.01,0c0.3,0,0.58-0.13,0.78-0.35c0.2-0.23,0.29-0.53,0.26-0.78
		L46.54,36.26z M18.67,40.46l0.25-4.03c0.4-3.09,3.02-5.43,6.12-5.49c4.57,1.74,9.25,1.74,13.92,0.01c3.1,0.06,5.72,2.4,6.12,5.45
		l0.25,4.08L18.67,40.46z"></path><path fill="#ffc064" d="M45.33,40.48l-26.66-0.02l0.25-4.03c0.4-3.09,3.02-5.43,6.12-5.49c4.57,1.74,9.25,1.74,13.92,0.01
		c3.1,0.06,5.72,2.4,6.12,5.45L45.33,40.48z"></path><path fill="#f2b25f" d="M45.33,40.48h-1.65l-0.1-1.68c-0.05-0.38-0.13-0.75-0.25-1.11c-1-3.07-4.4-4.69-7.51-3.81
		c-3.65,1.03-7.29,1.01-10.87-0.07c-2-0.6-4.22-0.12-5.7,1.35l-0.03,0.03c0.84-2.46,3.16-4.21,5.83-4.26
		c4.57,1.74,9.25,1.74,13.92,0.01c3.1,0.06,5.72,2.4,6.12,5.45L45.33,40.48z"></path><path d="M40.55,13.76c-0.05-2.29-1.21-3.49-2.16-3.99c0.04-0.63-0.2-1.09-0.44-1.38c-1.29-1.55-5.16-1.19-6.76-0.97
		c-0.07,0.01-0.15,0.01-0.23,0.01c-6.93-0.33-7.41,4.39-7.42,4.44c-0.37,4.69,0.67,6.42,1.34,7.05l-0.03,1.25
		c-0.01,2.24,1.05,4.56,2.77,6.08c0.02,0.02,0.05,0.05,0.08,0.07c1.27,1.1,2.74,1.67,4.26,1.67c1.58,0,3.1-0.61,4.37-1.77
		c1.72-1.53,2.74-3.79,2.74-6.02l0.01-0.19C40.81,17.65,40.56,13.88,40.55,13.76z M37.62,19.83l-0.01,0.35
		c0,1.81-0.87,3.71-2.26,4.96c-1.94,1.76-4.59,1.84-6.63,0.13c-0.02-0.02-0.04-0.05-0.07-0.07c-1.44-1.24-2.34-3.17-2.33-5.01
		l0.03-1.59c0-0.01,0-0.01,0-0.01l0.09-1.97c0-0.64,0.16-1.53,0.9-2.14l0.13-0.11c0.24-0.19,0.55-0.29,0.85-0.26l0.66,0.07
		c0.09,0.01,0.19,0,0.28-0.03c1.46-0.42,2.65-0.29,3.29-0.14l0.02,0.39c0.02,0.24,0.15,0.46,0.36,0.59
		c0.21,0.12,0.47,0.13,0.69,0.03l1.7-0.82c0.71-0.34,1.03-0.14,1.13-0.07c0.86,0.53,1.17,2.7,1.2,3.74
		c-0.02,0.14-0.04,0.29-0.04,0.44v1.47C37.61,19.8,37.62,19.81,37.62,19.83z M38.96,16.27c-0.2-1.2-0.67-2.72-1.73-3.39
		c-0.29-0.17-0.69-0.33-1.2-0.33c-0.38,0-0.83,0.09-1.34,0.33l-0.83,0.39c-0.16-0.31-0.45-0.56-0.82-0.65
		c-0.73-0.18-2.21-0.41-4.05,0.08l-0.53-0.05c-0.69-0.06-1.39,0.15-1.92,0.59l-0.13,0.1c-0.72,0.59-1.17,1.39-1.35,2.33
		C24.93,14.8,24.88,13.62,25,12c0.02-0.14,0.44-3.36,5.88-3.11c0.17,0.01,0.34,0.01,0.51-0.02c2.62-0.36,4.91-0.17,5.44,0.46
		c0.05,0.07,0.18,0.22,0.03,0.68c-0.06,0.19-0.04,0.41,0.06,0.59c0.1,0.17,0.28,0.31,0.48,0.35c0.16,0.04,1.63,0.46,1.68,2.88
		C39.08,13.85,39.16,14.96,38.96,16.27z"></path><path fill="#e1e9ff" d="M38.96,16.27c-0.2-1.2-0.67-2.72-1.73-3.39c-0.29-0.17-0.69-0.33-1.2-0.33c-0.38,0-0.83,0.09-1.34,0.33
		l-0.83,0.39c-0.16-0.31-0.45-0.56-0.82-0.65c-0.73-0.18-2.21-0.41-4.05,0.08l-0.53-0.05c-0.69-0.06-1.39,0.15-1.92,0.59l-0.13,0.1
		c-0.72,0.59-1.17,1.39-1.35,2.33C24.93,14.8,24.88,13.62,25,12c0.02-0.14,0.44-3.36,5.88-3.11c0.17,0.01,0.34,0.01,0.51-0.02
		c2.62-0.36,4.91-0.17,5.44,0.46c0.05,0.07,0.18,0.22,0.03,0.68c-0.06,0.19-0.04,0.41,0.06,0.59c0.1,0.17,0.28,0.31,0.48,0.35
		c0.16,0.04,1.63,0.46,1.68,2.88C39.08,13.85,39.16,14.96,38.96,16.27z"></path><path fill="#edcdbe" d="M37.61,19.78c0,0.02,0.01,0.03,0.01,0.05l-0.01,0.35c0,1.81-0.87,3.71-2.26,4.96
		c-1.94,1.76-4.59,1.84-6.63,0.13c-0.02-0.02-0.04-0.05-0.07-0.07c-1.44-1.24-2.34-3.17-2.33-5.01l0.03-1.59c0-0.01,0-0.01,0-0.01
		l0.09-1.97c0-0.64,0.16-1.53,0.9-2.14l0.13-0.11c0.24-0.19,0.55-0.29,0.85-0.26l0.66,0.07c0.09,0.01,0.19,0,0.28-0.03
		c1.46-0.42,2.65-0.29,3.29-0.14l0.02,0.39c0.02,0.24,0.15,0.46,0.36,0.59c0.21,0.12,0.47,0.13,0.69,0.03l1.7-0.82
		c0.71-0.34,1.03-0.14,1.13-0.07c0.86,0.53,1.17,2.7,1.2,3.74c-0.02,0.14-0.04,0.29-0.04,0.44V19.78z"></path><path d="M63.82,52.91c-0.33-2.56-2.53-4.49-5.1-4.49c-0.09,0-0.18,0.02-0.26,0.05c-2.7,1.02-5.4,1.02-8.03,0
		c-0.09-0.04-0.16-0.03-0.27-0.05c-2.58,0-4.77,1.92-5.11,4.53l-0.17,2.77c-0.03,0.26,0.05,0.53,0.23,0.73
		c0.17,0.2,0.43,0.32,0.69,0.32l17.27,0.01c0.26,0,0.52-0.12,0.69-0.32c0.18-0.19,0.26-0.46,0.23-0.68L63.82,52.91z M46.37,55.3
		l0.14-2.21c0.23-1.79,1.74-3.14,3.52-3.2c2.9,1.08,5.86,1.09,8.81,0c1.79,0.06,3.29,1.42,3.52,3.16l0.14,2.26L46.37,55.3z"></path><path fill="#42c3fc" d="M62.5,55.31L46.37,55.3l0.14-2.21c0.23-1.79,1.74-3.14,3.52-3.2c2.9,1.08,5.86,1.09,8.81,0
		c1.79,0.06,3.29,1.42,3.52,3.16L62.5,55.31z"></path><path d="M60.06,38.84c-0.03-1.44-0.71-2.26-1.34-2.65c-0.02-0.42-0.21-0.72-0.34-0.88c-0.87-1.04-3.18-0.89-4.58-0.7
		c-4.61-0.22-4.93,3-4.93,3.03c-0.23,2.83,0.35,4.04,0.83,4.55l-0.01,0.67c-0.01,1.48,0.68,3,1.81,4c0.02,0.03,0.04,0.05,0.06,0.07
		c0.85,0.72,1.83,1.11,2.85,1.11c1.06,0,2.07-0.41,2.92-1.18c1.14-1.01,1.81-2.51,1.81-3.97v-0.03
		C60.23,41.29,60.07,38.91,60.06,38.84z M57.68,41.7v1.17c0,1.06-0.51,2.17-1.33,2.9c-0.4,0.37-1.07,0.8-1.94,0.8
		c-0.8,0-1.43-0.37-1.84-0.71c-0.01-0.02-0.03-0.03-0.05-0.05c-0.85-0.73-1.37-1.86-1.37-2.93l0.02-1.07l0.06-1.17
		c0-0.5,0.15-0.88,0.46-1.13l0.08-0.07c0.1-0.08,0.21-0.11,0.34-0.1l0.41,0.04c0.09,0.01,0.18,0,0.27-0.02
		c0.74-0.21,1.35-0.19,1.73-0.13v0.03c0.02,0.25,0.15,0.47,0.36,0.59c0.21,0.13,0.47,0.14,0.69,0.03l1.06-0.51
		c0.21-0.1,0.36-0.12,0.45-0.06c0.38,0.23,0.6,1.34,0.62,2.09C57.69,41.5,57.68,41.6,57.68,41.7z M57.86,38.07
		c-0.22-0.14-0.52-0.26-0.9-0.26c-0.27,0-0.6,0.07-0.96,0.24l-0.3,0.15c-0.14-0.16-0.33-0.28-0.54-0.33
		c-0.48-0.12-1.44-0.27-2.63,0.04l-0.28-0.03c-0.51-0.05-1.01,0.1-1.41,0.43l-0.08,0.07c-0.18,0.15-0.34,0.32-0.48,0.52
		c0-0.33,0.01-0.7,0.05-1.12c0.02-0.19,0.31-1.85,3.39-1.71c0.13,0.01,0.25,0,0.37-0.01c1.81-0.25,3.02-0.05,3.16,0.19
		c0,0,0.01,0.04-0.03,0.16c-0.06,0.2-0.04,0.42,0.06,0.6c0.11,0.18,0.28,0.31,0.49,0.35c0.01,0,0.8,0.18,0.83,1.54
		C58.42,38.56,58.18,38.27,57.86,38.07z"></path><path fill="#e1e9ff" d="M58.6,38.9c-0.18-0.34-0.42-0.63-0.74-0.83c-0.22-0.14-0.52-0.26-0.9-0.26c-0.27,0-0.6,0.07-0.96,0.24
		l-0.3,0.15c-0.14-0.16-0.33-0.28-0.54-0.33c-0.48-0.12-1.44-0.27-2.63,0.04l-0.28-0.03c-0.51-0.05-1.01,0.1-1.41,0.43l-0.08,0.07
		c-0.18,0.15-0.34,0.32-0.48,0.52c0-0.33,0.01-0.7,0.05-1.12c0.02-0.19,0.31-1.85,3.39-1.71c0.13,0.01,0.25,0,0.37-0.01
		c1.81-0.25,3.02-0.05,3.16,0.19c0,0,0.01,0.04-0.03,0.16c-0.06,0.2-0.04,0.42,0.06,0.6c0.11,0.18,0.28,0.31,0.49,0.35
		C57.78,37.36,58.57,37.54,58.6,38.9z"></path><path fill="#edcdbe" d="M57.7,41.4c-0.01,0.1-0.02,0.2-0.02,0.3v1.17c0,1.06-0.51,2.17-1.33,2.9c-0.4,0.37-1.07,0.8-1.94,0.8
		c-0.8,0-1.43-0.37-1.84-0.71c-0.01-0.02-0.03-0.03-0.05-0.05c-0.85-0.73-1.37-1.86-1.37-2.93l0.02-1.07l0.06-1.17
		c0-0.5,0.15-0.88,0.46-1.13l0.08-0.07c0.1-0.08,0.21-0.11,0.34-0.1l0.41,0.04c0.09,0.01,0.18,0,0.27-0.02
		c0.74-0.21,1.35-0.19,1.73-0.13v0.03c0.02,0.25,0.15,0.47,0.36,0.59c0.21,0.13,0.47,0.14,0.69,0.03l1.06-0.51
		c0.21-0.1,0.36-0.12,0.45-0.06C57.46,39.54,57.68,40.65,57.7,41.4z"></path><path d="M18.94,52.91c-0.33-2.56-2.52-4.49-5.1-4.49c-0.09,0-0.17,0.02-0.26,0.05c-2.69,1.02-5.39,1.02-8.03,0
		c-0.08-0.04-0.16-0.03-0.27-0.05c-2.57,0-4.76,1.92-5.1,4.52l-0.17,2.78c-0.04,0.27,0.05,0.53,0.22,0.73
		c0.18,0.2,0.43,0.32,0.7,0.32l17.26,0.01c0.27,0,0.52-0.12,0.7-0.32c0.18-0.2,0.26-0.46,0.23-0.68L18.94,52.91z M1.5,55.3
		l0.14-2.22c0.23-1.78,1.73-3.13,3.52-3.19c2.89,1.08,5.85,1.09,8.81,0c1.79,0.06,3.29,1.42,3.51,3.16l0.14,2.26L1.5,55.3z"></path><path fill="#ea526c" d="M17.62,55.31L1.5,55.3l0.14-2.22c0.23-1.78,1.73-3.13,3.52-3.19c2.89,1.08,5.85,1.09,8.81,0
		c1.79,0.06,3.29,1.42,3.51,3.16L17.62,55.31z"></path><path d="M15.19,38.84c-0.03-1.44-0.72-2.26-1.35-2.65c-0.02-0.42-0.2-0.72-0.34-0.88c-0.86-1.04-3.18-0.89-4.58-0.7
		c-4.6-0.22-4.92,3-4.93,3.03c-0.22,2.83,0.36,4.04,0.84,4.55l-0.02,0.67c-0.01,1.47,0.69,3,1.81,4c0.02,0.03,0.05,0.05,0.07,0.07
		c0.85,0.72,1.83,1.11,2.85,1.11c1.06,0,2.07-0.41,2.92-1.18c1.13-1.01,1.81-2.51,1.81-3.97v-0.03
		C15.36,41.29,15.2,38.91,15.19,38.84z M12.81,42.65l-0.01,0.22c0,1.06-0.5,2.17-1.32,2.9c-0.41,0.37-1.07,0.8-1.94,0.8
		c-0.8,0-1.44-0.37-1.84-0.71c-0.02-0.02-0.04-0.03-0.06-0.05c-0.84-0.73-1.37-1.86-1.36-2.93l0.02-1.09l0.05-1.15
		c0-0.5,0.16-0.88,0.47-1.13l0.08-0.07c0.09-0.08,0.21-0.11,0.33-0.1l0.42,0.04c0.09,0.01,0.18,0,0.27-0.02
		c0.73-0.21,1.35-0.18,1.72-0.13l0.01,0.03c0.01,0.25,0.15,0.47,0.36,0.59c0.21,0.13,0.46,0.14,0.69,0.03l1.06-0.51
		c0.2-0.1,0.35-0.12,0.45-0.06c0.37,0.23,0.59,1.34,0.62,2.09c-0.02,0.1-0.03,0.2-0.03,0.3v0.92C12.8,42.63,12.81,42.64,12.81,42.65
		z M12.98,38.07c-0.21-0.14-0.51-0.26-0.89-0.26c-0.28,0-0.6,0.07-0.96,0.24l-0.31,0.15c-0.14-0.16-0.32-0.28-0.54-0.33
		c-0.47-0.12-1.43-0.27-2.63,0.04l-0.28-0.03c-0.51-0.05-1.01,0.1-1.4,0.43l-0.08,0.07C5.7,38.53,5.54,38.7,5.41,38.9
		c-0.01-0.33,0.01-0.7,0.04-1.12c0.02-0.19,0.31-1.85,3.4-1.71c0.12,0.01,0.25,0,0.37-0.01c1.81-0.25,3.02-0.05,3.16,0.19
		c0,0,0.01,0.04-0.03,0.16c-0.07,0.19-0.04,0.41,0.06,0.58c0.1,0.18,0.27,0.31,0.47,0.36c0.08,0.03,0.82,0.25,0.85,1.55
		C13.54,38.56,13.3,38.27,12.98,38.07z"></path><path fill="#e1e9ff" d="M13.73,38.9c-0.19-0.34-0.43-0.63-0.75-0.83c-0.21-0.14-0.51-0.26-0.89-0.26c-0.28,0-0.6,0.07-0.96,0.24
		l-0.31,0.15c-0.14-0.16-0.32-0.28-0.54-0.33c-0.47-0.12-1.43-0.27-2.63,0.04l-0.28-0.03c-0.51-0.05-1.01,0.1-1.4,0.43l-0.08,0.07
		C5.7,38.53,5.54,38.7,5.41,38.9c-0.01-0.33,0.01-0.7,0.04-1.12c0.02-0.19,0.31-1.85,3.4-1.71c0.12,0.01,0.25,0,0.37-0.01
		c1.81-0.25,3.02-0.05,3.16,0.19c0,0,0.01,0.04-0.03,0.16c-0.07,0.19-0.04,0.41,0.06,0.58c0.1,0.18,0.27,0.31,0.47,0.36
		C12.96,37.38,13.7,37.6,13.73,38.9z"></path><path fill="#edcdbe" d="M12.8,42.62c0,0.01,0.01,0.02,0.01,0.03l-0.01,0.22c0,1.06-0.5,2.17-1.32,2.9c-0.41,0.37-1.07,0.8-1.94,0.8
		c-0.8,0-1.44-0.37-1.84-0.71c-0.02-0.02-0.04-0.03-0.06-0.05c-0.84-0.73-1.37-1.86-1.36-2.93l0.02-1.09l0.05-1.15
		c0-0.5,0.16-0.88,0.47-1.13l0.08-0.07c0.09-0.08,0.21-0.11,0.33-0.1l0.42,0.04c0.09,0.01,0.18,0,0.27-0.02
		c0.73-0.21,1.35-0.18,1.72-0.13l0.01,0.03c0.01,0.25,0.15,0.47,0.36,0.59c0.21,0.13,0.46,0.14,0.69,0.03l1.06-0.51
		c0.2-0.1,0.35-0.12,0.45-0.06c0.37,0.23,0.59,1.34,0.62,2.09c-0.02,0.1-0.03,0.2-0.03,0.3V42.62z"></path><path d="M38.92 47.71H25.08c-.4 0-.73.33-.73.73 0 .4.33.73.73.73h13.85c.4 0 .73-.33.73-.73C39.66 48.04 39.33 47.71 38.92 47.71zM6.49 19.97c.18 0 .37-.07.51-.2l1.84-1.77v9.53c0 .4.33.73.73.73s.73-.33.73-.73v-9.53l1.84 1.77c.29.28.76.27 1.04-.02.28-.29.27-.76-.02-1.04l-3.08-2.96c-.06-.06-.13-.1-.2-.13-.02-.01-.04-.01-.06-.02-.06-.02-.12-.03-.18-.04-.03 0-.05 0-.08 0-.06 0-.13.01-.19.03-.02.01-.04.01-.06.02 0 0-.01 0-.01 0-.08.03-.14.08-.2.13-.01 0-.01.01-.02.01l-3.08 2.96c-.29.28-.3.74-.02 1.04C6.11 19.89 6.3 19.97 6.49 19.97zM51.34 19.97c.18 0 .37-.07.51-.2l1.84-1.77v9.53c0 .4.33.73.73.73.4 0 .73-.33.73-.73v-9.53l1.84 1.77c.29.28.76.27 1.04-.02.28-.29.27-.76-.02-1.04l-3.08-2.96c-.06-.06-.13-.1-.2-.13-.02-.01-.04-.01-.06-.02-.06-.02-.12-.03-.18-.04-.03 0-.05 0-.08 0-.06 0-.13.01-.19.03-.02.01-.04.01-.06.02 0 0-.01 0-.01 0-.08.03-.14.08-.2.14-.01 0-.01.01-.02.01l-3.08 2.96c-.29.28-.3.74-.02 1.04C50.95 19.89 51.15 19.97 51.34 19.97z"></path></svg>